<svg width="25" height="25" viewBox="0 0 25 25" fill="none" xmlns="http://www.w3.org/2000/svg">
<path d="M5.2191 12.5C5.2191 11.8959 5.70879 11.4062 6.31285 11.4062H11.4062V6.31279C11.4062 5.70872 11.8959 5.21904 12.5 5.21904C13.1041 5.21904 13.5938 5.70872 13.5938 6.31279V11.4062H18.6872C19.2913 11.4062 19.781 11.8959 19.781 12.5C19.781 13.104 19.2913 13.5937 18.6872 13.5937H13.5937V18.6872C13.5937 19.2912 13.1041 19.7809 12.5 19.7809C11.8959 19.7809 11.4062 19.2912 11.4062 18.6872V13.5937H6.31285C5.70879 13.5937 5.2191 13.104 5.2191 12.5Z" fill="#384CFF"/>
<path fill-rule="evenodd" clip-rule="evenodd" d="M5.67024 0.496083C10.1729 -0.00715786 14.827 -0.00715786 19.3297 0.496083C21.9932 0.793765 24.1441 2.89179 24.4574 5.57069C24.9959 10.1745 24.9959 14.8254 24.4574 19.4293C24.1441 22.1082 21.9932 24.2062 19.3297 24.5039C14.827 25.0071 10.1729 25.0071 5.67023 24.5039C3.00676 24.2062 0.85587 22.1082 0.542548 19.4293C0.00408703 14.8254 0.00408712 10.1745 0.542548 5.57069C0.85587 2.89179 3.00676 0.793765 5.67024 0.496083ZM19.0867 2.67005C14.7455 2.18485 10.2544 2.18485 5.91321 2.67005C4.24425 2.85658 2.90834 4.17381 2.71524 5.8248C2.19652 10.2598 2.19652 14.7402 2.71524 19.1752C2.90834 20.8262 4.24424 22.1434 5.91321 22.3299C10.2544 22.8151 14.7455 22.8151 19.0867 22.3299C20.7557 22.1434 22.0916 20.8262 22.2847 19.1752C22.8034 14.7402 22.8034 10.2598 22.2847 5.8248C22.0916 4.17381 20.7557 2.85658 19.0867 2.67005Z" fill="#384CFF"/>
</svg>
