<svg width="30" height="30" viewBox="0 0 30 30" fill="none" xmlns="http://www.w3.org/2000/svg">
<rect opacity="0.7" width="30" height="30" rx="7" fill="#DDDDDD"/>
<path d="M12.4982 15.0293C12.4982 13.7093 13.6182 12.6392 14.9998 12.6392C16.3815 12.6392 17.5015 13.7093 17.5015 15.0293C17.5015 16.3493 16.3815 17.4194 14.9998 17.4194C13.6182 17.4194 12.4982 16.3493 12.4982 15.0293Z" fill="black"/>
<path fill-rule="evenodd" clip-rule="evenodd" d="M9.9672 9.33812C9.9672 7.49453 11.5315 6 13.4611 6H16.5385C18.4681 6 20.0324 7.49453 20.0324 9.33812C20.0324 9.35388 20.0451 9.36701 20.0615 9.36828L22.5405 9.56063C23.651 9.64679 24.5642 10.4313 24.7715 11.4771C25.3003 14.1459 25.3398 16.8821 24.888 19.5638L24.7799 20.2056C24.5761 21.4154 23.5338 22.3359 22.2554 22.4351L20.0959 22.6026C16.7041 22.8658 13.2955 22.8658 9.90375 22.6026L7.74416 22.4351C6.46577 22.3359 5.42356 21.4154 5.21974 20.2056L5.11161 19.5638C4.65983 16.8821 4.69926 14.1459 5.22816 11.4771C5.43542 10.4313 6.34866 9.64679 7.4591 9.56063L9.93809 9.36828C9.95454 9.36701 9.9672 9.35388 9.9672 9.33812ZM14.9998 11.0458C12.6971 11.0458 10.8304 12.8292 10.8304 15.0293C10.8304 17.2293 12.6971 19.0128 14.9998 19.0128C17.3026 19.0128 19.1693 17.2293 19.1693 15.0293C19.1693 12.8292 17.3026 11.0458 14.9998 11.0458Z" fill="black"/>
</svg>
