<svg width="20" height="20" viewBox="0 0 20 20" fill="none" xmlns="http://www.w3.org/2000/svg">
<path fill-rule="evenodd" clip-rule="evenodd" d="M12.3851 13.4456C9.7348 15.5682 5.85537 15.4011 3.39858 12.9444C0.762545 10.3083 0.762545 6.03445 3.39858 3.39842C6.03462 0.762377 10.3085 0.762377 12.9445 3.39842C15.4013 5.8552 15.5684 9.73462 13.4457 12.3849L18.6014 17.5405C18.8943 17.8334 18.8943 18.3083 18.6014 18.6012C18.3085 18.8941 17.8336 18.8941 17.5407 18.6012L12.3851 13.4456ZM4.45924 11.8837C2.40899 9.83344 2.40899 6.50933 4.45924 4.45908C6.5095 2.40882 9.83361 2.40882 11.8839 4.45908C13.9326 6.50782 13.9341 9.82856 11.8884 11.8792C11.8869 11.8807 11.8854 11.8822 11.8838 11.8837C11.8823 11.8852 11.8808 11.8867 11.8794 11.8882C9.82874 13.9339 6.50799 13.9324 4.45924 11.8837Z" fill="#384CFF" stroke="#384CFF" stroke-linecap="round"/>
</svg>
