<svg width="9" height="9" viewBox="0 0 9 9" fill="none" xmlns="http://www.w3.org/2000/svg">
<path d="M6.26738 0.136719C5.53713 0.136719 5.6864 1.01139 5.6864 2.04824C5.6864 3.08509 5.53713 3.89148 6.26738 3.89148C6.99763 3.89148 7.58962 3.05095 7.58962 2.0141C7.58962 0.977252 6.99763 0.136719 6.26738 0.136719Z" fill="#555555"/>
<path d="M6.45972 5.32512C6.34697 5.50537 6.34697 5.50537 6.39561 6.17524V6.77014C6.39561 7.14723 6.32582 8.26817 6.58794 8.32894C6.97259 8.32894 7.06088 8.32894 8.54542 8.12442C8.89584 8.12442 9.00002 7.74213 9.00002 7.36504V6.77014C9.00002 5.73329 8.40803 4.89276 7.67778 4.89276H7.55759C7.49254 4.89276 7.4279 4.90736 7.36606 4.93603L7.06088 5.07752C6.54529 5.31656 6.39561 5.40374 6.41267 5.40374C6.35083 5.37507 6.52477 5.32512 6.45972 5.32512Z" fill="#555555"/>
<path d="M2.98104 0C2.18441 0 1.5386 0.916945 1.5386 2.04805C1.5386 3.17916 2.18441 4.09611 2.98104 4.09611C3.77768 4.09611 4.42348 3.17916 4.42348 2.04805C4.42348 0.916945 3.77768 0 2.98104 0Z" fill="#555555"/>
<path d="M1.44244 5.1884C0.645802 5.1884 0 6.10535 0 7.23646V7.88544C0 8.29681 0.209975 8.64757 0.495919 8.71385C2.14177 9.09538 3.82031 9.09538 5.46617 8.71385C5.75211 8.64757 5.96209 8.29681 5.96209 7.88544V7.23646C5.96209 6.10535 5.31628 5.1884 4.51965 5.1884H4.38853C4.31757 5.1884 4.24705 5.20434 4.17959 5.23561L3.84667 5.38996C3.2842 5.65074 2.67789 5.65074 2.11542 5.38996L1.7825 5.23561C1.71504 5.20434 1.64452 5.1884 1.57356 5.1884H1.44244Z" fill="#555555"/>
</svg>
