<svg width="26" height="23" viewBox="0 0 26 23" fill="none" xmlns="http://www.w3.org/2000/svg">
<path d="M17.7127 1.31836C15.7653 1.31836 16.1634 3.35925 16.1634 5.77857C16.1634 8.19788 15.7653 10.0795 17.7127 10.0795C19.6601 10.0795 21.2388 8.11824 21.2388 5.69892C21.2388 3.2796 19.6601 1.31836 17.7127 1.31836Z" stroke="black" stroke-linecap="round" stroke-linejoin="round"/>
<path d="M18.2256 13.4246C17.925 13.8452 17.925 13.8452 18.0547 15.4083V16.7963C18.0547 17.6762 17.8686 20.2918 18.5676 20.4335C19.5933 20.4335 19.8288 20.4335 23.7876 19.9563C24.7221 19.9563 24.9999 19.0643 24.9999 18.1844V16.7963C24.9999 14.377 23.4212 12.4158 21.4739 12.4158H21.1533C20.9799 12.4158 20.8075 12.4499 20.6426 12.5168L19.8288 12.8469C18.4538 13.4047 18.0547 13.6081 18.1002 13.6081C17.9353 13.5412 18.3991 13.4246 18.2256 13.4246Z" stroke="black" stroke-linecap="round" stroke-linejoin="round"/>
<path d="M8.9496 1C6.82519 1 5.10302 3.13954 5.10302 5.77879C5.10302 8.41805 6.82519 10.5576 8.9496 10.5576C11.074 10.5576 12.7962 8.41805 12.7962 5.77879C12.7962 3.13954 11.074 1 8.9496 1Z" stroke="black" stroke-linecap="round" stroke-linejoin="round"/>
<path d="M4.84658 13.1063C2.72217 13.1063 1 15.2458 1 17.8851V19.3994C1 20.3592 1.55994 21.1777 2.32248 21.3323C6.71151 22.2226 11.1877 22.2226 15.5767 21.3323C16.3393 21.1777 16.8992 20.3592 16.8992 19.3994V17.8851C16.8992 15.2458 15.177 13.1063 13.0526 13.1063H12.703C12.5137 13.1063 12.3257 13.1435 12.1458 13.2164L11.258 13.5766C9.75803 14.1851 8.14118 14.1851 6.64123 13.5766L5.75342 13.2164C5.57353 13.1435 5.38547 13.1063 5.19623 13.1063H4.84658Z" stroke="black" stroke-linecap="round" stroke-linejoin="round"/>
</svg>
