<svg width="14" height="14" viewBox="0 0 14 14" fill="none" xmlns="http://www.w3.org/2000/svg">
<circle cx="7" cy="7" r="6.5" fill="url(#paint0_linear_745_633)" stroke="white"/>
<path d="M6.99582 3C7.39733 3 8.33055 3.22096 8.33055 4.56709C8.33055 4.94204 8.28581 5.17609 8.25454 5.3383C8.24834 5.37011 8.24252 5.40197 8.23708 5.43387L8.23671 5.43539C8.23432 5.45096 8.23594 5.46678 8.24149 5.48178C8.24703 5.49678 8.25636 5.5106 8.26884 5.52232C8.28133 5.53403 8.29667 5.54337 8.31385 5.54969C8.33102 5.55601 8.34961 5.55917 8.36837 5.55896C9.96822 5.55896 10.8225 5.91322 10.8225 6.27509C10.8225 6.4373 10.7498 6.58552 10.6309 6.69965C10.6272 6.70326 10.6245 6.70747 10.6229 6.71202C10.6213 6.71657 10.6209 6.72134 10.6217 6.72603C10.6225 6.73072 10.6245 6.73521 10.6275 6.73922C10.6305 6.74322 10.6345 6.74665 10.6392 6.74926C10.7492 6.80742 10.8399 6.88781 10.9029 6.98302C10.966 7.07823 10.9994 7.18519 11 7.29404C11 7.55578 10.8265 7.78039 10.5581 7.88539C10.5531 7.88742 10.5486 7.89032 10.5449 7.8939C10.5413 7.89748 10.5386 7.90166 10.537 7.90616C10.5355 7.91067 10.535 7.9154 10.5358 7.92006C10.5365 7.92471 10.5384 7.92918 10.5414 7.93317C10.6167 8.033 10.661 8.15017 10.661 8.27648C10.661 8.56439 10.4621 8.80635 10.1497 8.894C10.1399 8.89684 10.1318 8.90281 10.1271 8.91061C10.1225 8.91841 10.1217 8.92742 10.125 8.9357C10.1472 8.9917 10.1606 9.05135 10.1606 9.11343C10.1606 9.43483 9.51471 9.69565 7.99668 9.69565C6.88744 9.69565 6.12224 9.52978 5.82802 9.41078C5.61163 9.32313 5.36396 9.16426 5.36396 8.69861V6.84635C5.36396 6.32287 5.71237 5.97287 6.05896 5.6247C6.40301 5.27957 6.74597 4.93565 6.74597 4.42465C6.74597 4.01683 6.71287 3.75813 6.68814 3.5673C6.67396 3.4553 6.66268 3.36643 6.66268 3.28487C6.66268 3.12448 6.80234 3.00061 6.99582 3ZM4.2729 6.34783H3.54553C3.18184 6.34783 3 7.1653 3 8.17391C3 9.18252 3.18184 10 3.54553 10H4.2729C4.36936 10 4.46186 9.96793 4.53007 9.91086C4.59827 9.85378 4.63659 9.77637 4.63659 9.69565V6.65217C4.63659 6.57146 4.59827 6.49404 4.53007 6.43697C4.46186 6.37989 4.36936 6.34783 4.2729 6.34783Z" fill="white"/>
<defs>
<linearGradient id="paint0_linear_745_633" x1="7" y1="-3" x2="7" y2="17.5" gradientUnits="userSpaceOnUse">
<stop stop-color="#6B79F2"/>
<stop offset="1" stop-color="#0019FE"/>
</linearGradient>
</defs>
</svg>
