<svg width="8" height="9" viewBox="0 0 8 9" fill="none" xmlns="http://www.w3.org/2000/svg">
<path fill-rule="evenodd" clip-rule="evenodd" d="M1.27393 2.57752L1.44614 4.02951L1.09767 4.05557C0.61173 4.09192 0.214936 4.43415 0.136164 4.88486C-0.0453879 5.92364 -0.0453879 6.98317 0.136164 8.02195C0.214936 8.47267 0.61173 8.8149 1.09767 8.85124L1.84865 8.90741C3.03433 8.99609 4.22568 8.99609 5.41136 8.90741L6.16234 8.85124C6.64828 8.8149 7.04507 8.47267 7.12385 8.02195C7.3054 6.98317 7.3054 5.92364 7.12385 4.88486C7.04507 4.43415 6.64828 4.09192 6.16234 4.05557L5.81382 4.02951L5.98602 2.57752C6.00632 2.40635 6.00632 2.23361 5.98602 2.06244L5.9746 1.96608C5.85338 0.943999 4.99575 0.135294 3.90561 0.0151382C3.72249 -0.00504607 3.53747 -0.00504607 3.35435 0.0151382C2.26421 0.135294 1.40658 0.943999 1.28536 1.96608L1.27393 2.06244C1.25363 2.23361 1.25363 2.40635 1.27393 2.57752ZM3.81764 0.715712C3.69296 0.70197 3.567 0.70197 3.44232 0.715712C2.70012 0.797519 2.11621 1.34811 2.03368 2.04398L2.02226 2.14034C2.0081 2.25973 2.0081 2.38023 2.02226 2.49962L2.19734 3.97589C3.15145 3.91856 4.10851 3.91856 5.06262 3.97589L5.2377 2.49962C5.25186 2.38023 5.25186 2.25973 5.2377 2.14034L5.22627 2.04398C5.14375 1.34811 4.55984 0.797519 3.81764 0.715712ZM3.62999 5.748C3.21416 5.748 2.87706 6.06382 2.87706 6.45341C2.87706 6.84299 3.21416 7.15882 3.62999 7.15882C4.04582 7.15882 4.38292 6.84299 4.38292 6.45341C4.38292 6.06382 4.04582 5.748 3.62999 5.748Z" fill="#555555"/>
</svg>
