<svg width="32" height="35" viewBox="0 0 32 35" fill="none" xmlns="http://www.w3.org/2000/svg">
<path d="M18.5615 0.715489C16.9856 -0.238497 15.0144 -0.238496 13.4385 0.71549L12.2991 1.40529C9.53444 3.07899 6.4307 4.10604 3.21773 4.41037L2.49987 4.47837C1.08284 4.61259 0 5.80864 0 7.2396V10.887C0 17.0521 2.48957 22.9531 6.8984 27.2381L14.0826 34.2206C15.1519 35.2598 16.8481 35.2598 17.9173 34.2206L25.1016 27.2381C29.5104 22.9531 32 17.0521 32 10.887V7.2396C32 5.80864 30.9172 4.61259 29.5001 4.47837L28.7823 4.41037C25.5693 4.10604 22.4656 3.07899 19.7009 1.40529L18.5615 0.715489Z" fill="url(#paint0_linear_745_2304)"/>
<path fill-rule="evenodd" clip-rule="evenodd" d="M11.8461 12.4686L12.1498 15.0313L11.5354 15.0773C10.6786 15.1414 9.97905 15.7454 9.84017 16.5409C9.52008 18.3743 9.52008 20.2443 9.84017 22.0777C9.97905 22.8731 10.6786 23.4771 11.5354 23.5413L12.8594 23.6404C14.9499 23.7969 17.0503 23.7969 19.1408 23.6404L20.4648 23.5413C21.3216 23.4771 22.0211 22.8731 22.16 22.0777C22.4801 20.2443 22.4801 18.3743 22.16 16.5409C22.0211 15.7454 21.3216 15.1414 20.4648 15.0773L19.8504 15.0313L20.154 12.4686C20.1897 12.1665 20.1897 11.8616 20.154 11.5595L20.1338 11.3894C19.9201 9.58553 18.408 8.15822 16.486 7.94615C16.1632 7.91053 15.837 7.91053 15.5141 7.94615C13.5921 8.15822 12.08 9.58553 11.8663 11.3894L11.8461 11.5595C11.8104 11.8616 11.8104 12.1665 11.8461 12.4686ZM16.3309 9.18262C16.1111 9.15837 15.889 9.15837 15.6692 9.18262C14.3606 9.327 13.3312 10.2988 13.1857 11.5269L13.1655 11.697C13.1405 11.9077 13.1405 12.1204 13.1655 12.3311L13.4742 14.9366C15.1564 14.8354 16.8437 14.8354 18.5259 14.9366L18.8346 12.3311C18.8596 12.1204 18.8596 11.9077 18.8346 11.697L18.8145 11.5269C18.6689 10.2988 17.6395 9.327 16.3309 9.18262ZM16.0001 18.0643C15.2669 18.0643 14.6726 18.6217 14.6726 19.3093C14.6726 19.9969 15.2669 20.5543 16.0001 20.5543C16.7332 20.5543 17.3275 19.9969 17.3275 19.3093C17.3275 18.6217 16.7332 18.0643 16.0001 18.0643Z" fill="white"/>
<defs>
<linearGradient id="paint0_linear_745_2304" x1="16" y1="0" x2="16" y2="35" gradientUnits="userSpaceOnUse">
<stop stop-color="#384CFF"/>
<stop offset="1" stop-color="#00A3FF"/>
</linearGradient>
</defs>
</svg>
