<svg width="20" height="20" viewBox="0 0 20 20" fill="none" xmlns="http://www.w3.org/2000/svg">
<path d="M9.16683 3.125C7.44094 3.125 6.04183 4.52411 6.04183 6.25C6.04183 7.97589 7.44094 9.375 9.16683 9.375C10.8927 9.375 12.2918 7.97589 12.2918 6.25C12.2918 4.52411 10.8927 3.125 9.16683 3.125Z" fill="url(#paint0_linear_745_2567)"/>
<path d="M5.8335 11.0417C4.10761 11.0417 2.7085 12.4408 2.7085 14.1667V15.1569C2.7085 15.7846 3.1634 16.3198 3.78289 16.4209C7.34858 17.0031 10.9851 17.0031 14.5508 16.4209C15.1703 16.3198 15.6252 15.7846 15.6252 15.1569V14.1667C15.6252 12.4408 14.2261 11.0417 12.5002 11.0417H12.2161C12.0624 11.0417 11.9096 11.066 11.7634 11.1137L11.0422 11.3492C9.8236 11.7471 8.51006 11.7471 7.29148 11.3492L6.57022 11.1137C6.42407 11.066 6.2713 11.0417 6.11755 11.0417H5.8335Z" fill="url(#paint1_linear_745_2567)"/>
<path d="M16.2502 5.20833C16.5953 5.20833 16.8752 5.48816 16.8752 5.83333V7.29167H18.3335C18.6787 7.29167 18.9585 7.57149 18.9585 7.91667C18.9585 8.26184 18.6787 8.54167 18.3335 8.54167H16.8752V10C16.8752 10.3452 16.5953 10.625 16.2502 10.625C15.905 10.625 15.6252 10.3452 15.6252 10V8.54167H14.1668C13.8217 8.54167 13.5418 8.26184 13.5418 7.91667C13.5418 7.57149 13.8217 7.29167 14.1668 7.29167H15.6252V5.83333C15.6252 5.48816 15.905 5.20833 16.2502 5.20833Z" fill="url(#paint2_linear_745_2567)"/>
<defs>
<linearGradient id="paint0_linear_745_2567" x1="10.8335" y1="3.125" x2="10.8335" y2="16.8575" gradientUnits="userSpaceOnUse">
<stop stop-color="#384CFF"/>
<stop offset="1" stop-color="#00A3FF"/>
</linearGradient>
<linearGradient id="paint1_linear_745_2567" x1="10.8335" y1="3.125" x2="10.8335" y2="16.8575" gradientUnits="userSpaceOnUse">
<stop stop-color="#384CFF"/>
<stop offset="1" stop-color="#00A3FF"/>
</linearGradient>
<linearGradient id="paint2_linear_745_2567" x1="10.8335" y1="3.125" x2="10.8335" y2="16.8575" gradientUnits="userSpaceOnUse">
<stop stop-color="#384CFF"/>
<stop offset="1" stop-color="#00A3FF"/>
</linearGradient>
</defs>
</svg>
