<svg width="18" height="18" viewBox="0 0 18 18" fill="none" xmlns="http://www.w3.org/2000/svg">
<path d="M14.2163 2.32939C14.436 2.10972 14.436 1.75356 14.2163 1.53389C13.9966 1.31422 13.6405 1.31422 13.4208 1.53389L12.8905 2.06422C12.5189 2.4358 12.5379 3.0132 12.8621 3.37494C15.039 5.804 14.96 9.54065 12.6253 11.8753C11.4178 13.0829 9.83525 13.687 8.25254 13.6876L8.25011 13.6876L8.24782 13.6876C6.77202 13.6871 5.29641 13.1619 4.12494 12.1121C3.7632 11.7879 3.1858 11.7689 2.81422 12.1405L2.28389 12.6708C2.06422 12.8905 2.06422 13.2466 2.28389 13.4663C2.50356 13.686 2.85972 13.686 3.07939 13.4663L3.49222 13.0535C4.70706 14.0964 6.18291 14.6756 7.68761 14.7911V15.9376H6.37511C6.06445 15.9376 5.81261 16.1894 5.81261 16.5001C5.81261 16.8108 6.06445 17.0626 6.37511 17.0626H10.1251C10.4358 17.0626 10.6876 16.8108 10.6876 16.5001C10.6876 16.1894 10.4358 15.9376 10.1251 15.9376H8.81261V14.7911C10.4924 14.6623 12.1361 13.9555 13.4208 12.6708C16.1427 9.94893 16.2702 5.61553 13.8035 2.74222L14.2163 2.32939Z" fill="url(#paint0_linear_745_2562)"/>
<path fill-rule="evenodd" clip-rule="evenodd" d="M3.37511 7.50011C3.37511 4.80772 5.55772 2.62511 8.25011 2.62511C10.9425 2.62511 13.1251 4.80772 13.1251 7.50011C13.1251 10.1925 10.9425 12.3751 8.25011 12.3751C5.55772 12.3751 3.37511 10.1925 3.37511 7.50011ZM9.75011 4.68761C8.61102 4.68761 7.68761 5.61102 7.68761 6.75011C7.68761 7.88919 8.61102 8.81261 9.75011 8.81261C10.8892 8.81261 11.8126 7.88919 11.8126 6.75011C11.8126 5.61102 10.8892 4.68761 9.75011 4.68761ZM4.68761 9.37511C4.68761 8.85734 5.10734 8.43761 5.62511 8.43761C6.14287 8.43761 6.56261 8.85734 6.56261 9.37511C6.56261 9.89287 6.14287 10.3126 5.62511 10.3126C5.10734 10.3126 4.68761 9.89287 4.68761 9.37511Z" fill="url(#paint1_linear_745_2562)"/>
<defs>
<linearGradient id="paint0_linear_745_2562" x1="8.84087" y1="1.36914" x2="8.84087" y2="17.0626" gradientUnits="userSpaceOnUse">
<stop stop-color="#384CFF"/>
<stop offset="1" stop-color="#00A3FF"/>
</linearGradient>
<linearGradient id="paint1_linear_745_2562" x1="8.84087" y1="1.36914" x2="8.84087" y2="17.0626" gradientUnits="userSpaceOnUse">
<stop stop-color="#384CFF"/>
<stop offset="1" stop-color="#00A3FF"/>
</linearGradient>
</defs>
</svg>
