<svg width="21" height="20" viewBox="0 0 21 20" fill="none" xmlns="http://www.w3.org/2000/svg">
<path d="M13.596 2.65469C11.321 2.2733 8.98619 2.2733 6.71124 2.65469C5.88011 2.79403 5.21823 3.43209 5.05159 4.2594C4.28815 8.04947 4.2465 11.9495 4.92881 15.7551L5.2066 17.3044C5.29225 17.7822 5.87468 17.9731 6.22656 17.6388L9.57966 14.4534C9.90129 14.1478 10.4059 14.1478 10.7276 14.4534L14.0807 17.6388C14.4326 17.9731 15.015 17.7822 15.1006 17.3044L15.3784 15.7551C16.0607 11.9495 16.0191 8.04947 15.2556 4.2594C15.089 3.43209 14.4271 2.79403 13.596 2.65469Z" fill="url(#paint0_linear_745_2587)"/>
<defs>
<linearGradient id="paint0_linear_745_2587" x1="10.1536" y1="2.36865" x2="10.1536" y2="17.8071" gradientUnits="userSpaceOnUse">
<stop stop-color="#384CFF"/>
<stop offset="1" stop-color="#00A3FF"/>
</linearGradient>
</defs>
</svg>
