<svg width="16" height="14" viewBox="0 0 16 14" fill="none" xmlns="http://www.w3.org/2000/svg">
<path fill-rule="evenodd" clip-rule="evenodd" d="M3.68385 2.33362V3.43507L2.26767 3.54109C1.26637 3.61605 0.449585 4.31524 0.288996 5.2349C0.254095 5.43477 0.222356 5.635 0.193777 5.83551C0.179595 5.93501 0.23681 6.03132 0.334622 6.07428L0.399043 6.10256C4.93762 8.09558 10.3724 8.09558 14.911 6.10256L14.9754 6.07428C15.0732 6.03133 15.1304 5.93502 15.1162 5.83552C15.0876 5.635 15.0559 5.43478 15.021 5.2349C14.8604 4.31524 14.0436 3.61605 13.0423 3.54109L11.6262 3.43507V2.33362C11.6262 1.66197 11.0963 1.0914 10.3801 0.991763L9.36024 0.849884C8.22974 0.692617 7.08027 0.692617 5.94976 0.849884L4.92987 0.991763C4.21368 1.0914 3.68385 1.66197 3.68385 2.33362ZM9.17422 2.00004C8.16704 1.85993 7.14296 1.85993 6.13579 2.00004L5.1159 2.14192C5.01359 2.15616 4.9379 2.23767 4.9379 2.33362V3.35321C6.74782 3.25706 8.56219 3.25706 10.3721 3.35322V2.33362C10.3721 2.23767 10.2964 2.15616 10.1941 2.14192L9.17422 2.00004Z" fill="url(#paint0_linear_745_2554)"/>
<path d="M15.2782 7.45844C15.272 7.34981 15.1493 7.28194 15.0421 7.32599C10.3846 9.23848 4.92539 9.23848 0.267915 7.32598C0.160655 7.28193 0.0380224 7.3498 0.0317855 7.45843C-0.0533002 8.94048 0.0324367 10.4289 0.288996 11.8981C0.449585 12.8178 1.26636 13.517 2.26766 13.5919L3.83265 13.7091C6.37675 13.8995 8.93325 13.8995 11.4773 13.7091L13.0423 13.5919C14.0436 13.517 14.8604 12.8178 15.021 11.8981C15.2776 10.4289 15.3633 8.94048 15.2782 7.45844Z" fill="url(#paint1_linear_745_2554)"/>
<defs>
<linearGradient id="paint0_linear_745_2554" x1="7.655" y1="0.731934" x2="7.655" y2="13.8519" gradientUnits="userSpaceOnUse">
<stop stop-color="#384CFF"/>
<stop offset="1" stop-color="#00A3FF"/>
</linearGradient>
<linearGradient id="paint1_linear_745_2554" x1="7.655" y1="0.731934" x2="7.655" y2="13.8519" gradientUnits="userSpaceOnUse">
<stop stop-color="#384CFF"/>
<stop offset="1" stop-color="#00A3FF"/>
</linearGradient>
</defs>
</svg>
