<svg width="19" height="19" viewBox="0 0 19 19" fill="none" xmlns="http://www.w3.org/2000/svg">
<path fill-rule="evenodd" clip-rule="evenodd" d="M5.73943 4.32337V5.50177C5.4532 5.52344 5.16711 5.54759 4.88119 5.57422C3.74048 5.68047 2.85087 6.73869 2.74054 7.87737C2.72789 8.00793 2.83534 8.11452 2.9665 8.11452H16.0332C16.1643 8.11452 16.2718 8.00793 16.2591 7.87737C16.1488 6.73869 15.2592 5.68047 14.1185 5.57422C13.8326 5.54759 13.5465 5.52344 13.2603 5.50177V4.32337C13.2603 3.6376 12.7585 3.05501 12.0804 2.95329L11.1146 2.80842C10.0441 2.64784 8.95561 2.64784 7.8851 2.80842L6.91933 2.95329C6.24114 3.05501 5.73943 3.6376 5.73943 4.32337ZM10.9384 3.98278C9.98471 3.83972 9.01498 3.83972 8.06125 3.98278L7.09549 4.12765C6.9986 4.14218 6.92693 4.22541 6.92693 4.32337V5.42611C8.64106 5.33744 10.3586 5.33744 12.0728 5.42611V4.32337C12.0728 4.22541 12.0011 4.14218 11.9042 4.12765L10.9384 3.98278Z" fill="url(#paint0_linear_745_2592)"/>
<path fill-rule="evenodd" clip-rule="evenodd" d="M16.2707 9.53952C16.2707 9.40835 16.1643 9.30202 16.0332 9.30202H2.9665C2.83534 9.30202 2.729 9.40835 2.729 9.53952V14.2304C2.729 15.4553 3.66158 16.4787 4.88119 16.5923C7.95364 16.8785 11.046 16.8785 14.1185 16.5923C15.3381 16.4787 16.2707 15.4553 16.2707 14.2304V9.53952ZM7.52068 12.0729C7.19276 12.0729 6.92693 12.3387 6.92693 12.6666C6.92693 12.9945 7.19276 13.2604 7.52068 13.2604H8.9061V14.6458C8.9061 14.9737 9.17193 15.2395 9.49985 15.2395C9.82776 15.2395 10.0936 14.9737 10.0936 14.6458V13.2604H11.479C11.8069 13.2604 12.0728 12.9945 12.0728 12.6666C12.0728 12.3387 11.8069 12.0729 11.479 12.0729H10.0936V10.6874C10.0936 10.3595 9.82776 10.0937 9.49985 10.0937C9.17193 10.0937 8.9061 10.3595 8.9061 10.6874V12.0729H7.52068Z" fill="url(#paint1_linear_745_2592)"/>
<defs>
<linearGradient id="paint0_linear_745_2592" x1="9.49984" y1="2.68799" x2="9.49984" y2="16.8069" gradientUnits="userSpaceOnUse">
<stop stop-color="#384CFF"/>
<stop offset="1" stop-color="#00A3FF"/>
</linearGradient>
<linearGradient id="paint1_linear_745_2592" x1="9.49984" y1="2.68799" x2="9.49984" y2="16.8069" gradientUnits="userSpaceOnUse">
<stop stop-color="#384CFF"/>
<stop offset="1" stop-color="#00A3FF"/>
</linearGradient>
</defs>
</svg>
