<svg width="20" height="15" viewBox="0 0 20 15" fill="none" xmlns="http://www.w3.org/2000/svg">
<path fill-rule="evenodd" clip-rule="evenodd" d="M10.4096 0C10.8238 0 11.1595 0.266467 11.1595 0.595172V1.97351C12.5907 1.9891 14.0214 2.04935 15.4482 2.15424L15.7797 2.17861C18.0442 2.34509 19.7879 3.83751 19.8264 5.64214L19.8385 6.20832C19.8855 8.41032 19.6619 10.6107 19.1707 12.7783C18.9472 13.7647 17.8656 14.4825 16.6028 14.4825H16.3818C15.2454 14.4825 14.2158 13.951 13.7551 13.1266L12.6946 11.229C11.8157 9.65621 9.00349 9.65621 8.12459 11.229L7.06412 13.1266C6.6034 13.951 5.5738 14.4825 4.43745 14.4825H4.21642C2.95358 14.4825 1.87201 13.7647 1.64849 12.7783C1.15736 10.6107 0.933716 8.41032 0.980738 6.20832L0.992829 5.64215C1.03137 3.83751 2.77506 2.34509 5.03951 2.17861L5.37107 2.15424C6.79782 2.04935 8.22847 1.9891 9.6597 1.97351V0.595172C9.6597 0.266467 9.99545 0 10.4096 0ZM15.409 4.56298C15.409 4.12471 14.9613 3.76942 14.4091 3.76942C13.8569 3.76942 13.4092 4.12471 13.4092 4.56298V4.76137C13.4092 5.19964 13.8569 5.55493 14.4091 5.55493C14.9613 5.55493 15.409 5.19964 15.409 4.76137V4.56298ZM6.41011 3.96781C6.82427 3.96781 7.16001 4.23428 7.16001 4.56298V5.55493H8.40986C8.82402 5.55493 9.15976 5.8214 9.15976 6.15011C9.15976 6.47881 8.82402 6.74528 8.40986 6.74528H7.16001V7.73723C7.16001 8.06593 6.82427 8.3324 6.41011 8.3324C5.99594 8.3324 5.6602 8.06593 5.6602 7.73723V6.74528H4.41035C3.99619 6.74528 3.66045 6.47881 3.66045 6.15011C3.66045 5.8214 3.99619 5.55493 4.41035 5.55493L5.6602 5.55493V4.56298C5.6602 4.23428 5.99594 3.96781 6.41011 3.96781ZM14.4091 6.74528C14.9613 6.74528 15.409 7.10057 15.409 7.53884V7.73723C15.409 8.1755 14.9613 8.53079 14.4091 8.53079C13.8569 8.53079 13.4092 8.1755 13.4092 7.73723V7.53884C13.4092 7.10057 13.8569 6.74528 14.4091 6.74528ZM16.4089 6.94367C16.9611 6.94367 17.4087 6.58838 17.4087 6.15011C17.4087 5.71183 16.9611 5.35654 16.4089 5.35654H16.1589C15.6067 5.35654 15.159 5.71183 15.159 6.15011C15.159 6.58838 15.6067 6.94367 16.1589 6.94367H16.4089ZM13.6592 6.15011C13.6592 6.58838 13.2115 6.94367 12.6593 6.94367H12.4094C11.8571 6.94367 11.4095 6.58838 11.4095 6.1501C11.4095 5.71183 11.8571 5.35654 12.4094 5.35654H12.6593C13.2115 5.35654 13.6592 5.71183 13.6592 6.15011Z" fill="url(#paint0_linear_745_2582)"/>
<defs>
<linearGradient id="paint0_linear_745_2582" x1="10.4096" y1="0" x2="10.4096" y2="14.4825" gradientUnits="userSpaceOnUse">
<stop stop-color="#384CFF"/>
<stop offset="1" stop-color="#00A3FF"/>
</linearGradient>
</defs>
</svg>
