<svg width="21" height="17" viewBox="0 0 21 17" fill="none" xmlns="http://www.w3.org/2000/svg">
<path d="M6.33329 6.08301C5.52788 6.08301 4.87496 6.73593 4.87496 7.54135C4.87496 8.34676 5.52788 8.99968 6.33329 8.99968C7.13871 8.99968 7.79163 8.34676 7.79163 7.54135C7.79163 6.73593 7.13871 6.08301 6.33329 6.08301Z" fill="black"/>
<path d="M11 6.08301C10.1945 6.08301 9.54163 6.73593 9.54163 7.54135C9.54163 8.34676 10.1945 8.99968 11 8.99968C11.8054 8.99968 12.4583 8.34676 12.4583 7.54135C12.4583 6.73593 11.8054 6.08301 11 6.08301Z" fill="black"/>
<path d="M14.2083 7.54135C14.2083 6.73593 14.8612 6.08301 15.6666 6.08301C16.472 6.08301 17.125 6.73593 17.125 7.54135C17.125 8.34676 16.472 8.99968 15.6666 8.99968C14.8612 8.99968 14.2083 8.34676 14.2083 7.54135Z" fill="black"/>
<path fill-rule="evenodd" clip-rule="evenodd" d="M15.7841 0.357934C12.6409 0.0898815 9.48127 0.0743254 6.33556 0.311416L6.11012 0.328407C3.11027 0.554505 0.791626 3.05447 0.791626 6.06284V15.9997C0.791626 16.3075 0.953403 16.5927 1.21763 16.7507C1.48186 16.9087 1.80967 16.9162 2.08084 16.7704L6.64343 14.3184C6.85566 14.2044 7.09284 14.1447 7.33378 14.1447H17.8063C19.127 14.1447 20.2589 13.2004 20.4957 11.901C20.9755 9.26757 21.0134 6.57261 20.6078 3.92672L20.4883 3.14701C20.2707 1.72746 19.1094 0.641514 17.6785 0.519485L15.7841 0.357934ZM6.46708 2.05647C9.5195 1.82641 12.5854 1.8415 15.6354 2.10161L17.5298 2.26316C18.1555 2.31652 18.6634 2.7914 18.7585 3.41215L18.878 4.19187C19.2542 6.6457 19.219 9.14504 18.774 11.5873C18.6888 12.0549 18.2815 12.3947 17.8063 12.3947H7.33378C6.80372 12.3947 6.28191 12.526 5.815 12.7769L2.54163 14.5361V6.06284C2.54163 3.96995 4.15468 2.23075 6.24165 2.07346L6.46708 2.05647Z" fill="black"/>
</svg>
